<svg width="633" height="26" viewBox="0 0 633 26" fill="none" xmlns="http://www.w3.org/2000/svg">
<g filter="url(#filter0_d_601_19)">
<path d="M0 5.78884C6.82706 4.64835 16.7533 3.19185 23.8608 4.54409C30.4975 5.80676 34.081 12.8314 42.4193 9.44985C47.1293 7.53971 56.4935 4.98209 62.3461 7.76578C65.2501 9.14705 68.6785 7.70248 71.5825 9.08375C74.8265 10.6267 77.1511 11.0607 80.819 11.0607C87.4425 11.0607 94.2748 9.74273 101.259 9.74273C105.478 9.74273 109.697 9.74273 113.916 9.74273C118.615 9.74273 119.928 7.94002 123.922 7.18002C136.207 4.8428 152.019 7.1068 164.717 7.1068C170.597 7.1068 177.52 5.98203 181.65 10.4017C184.908 13.8876 193.974 12.3787 198.584 12.3787C202.616 12.3787 203.329 10.3819 206.965 9.81595C210.621 9.24685 214.869 9.74273 218.596 9.74273C223.92 9.74273 233.851 8.1419 238.523 10.4749C244.368 13.3939 246.614 13.6966 254.002 13.6966C258.108 13.6966 262.213 13.6966 266.318 13.6966C270.825 13.6966 271.685 11.5079 275.554 10.0356C288.509 5.10623 300.554 13.6966 313.355 13.6966C321.28 13.6966 329.205 13.6966 337.131 13.6966C344.52 13.6966 348.339 10.9051 354.834 9.66951C358.766 8.9214 360.132 7.1068 364.84 7.1068C367.919 7.1068 370.998 7.1068 374.076 7.1068C380.784 7.1068 388.011 6.11584 394.089 8.71765C404.269 13.0758 417.867 14.7446 429.495 13.6966C435.838 13.125 440.313 9.74273 447.198 9.74273C454.895 9.74273 462.592 9.74273 470.289 9.74273C476.191 9.74273 482.092 9.74273 487.993 9.74273C493.835 9.74273 499.27 7.1068 505.696 7.1068C518.351 7.1068 537.116 4.52883 546.832 10.7678C548.858 12.0685 553.703 11.7089 556.496 13.0376C559.105 14.2783 562.904 13.6966 565.818 13.6966C571.105 13.6966 572.055 9.74273 576.509 9.74273C579.844 9.74273 583.179 9.74273 586.515 9.74273C599.343 9.74273 612.172 9.74273 625 9.74273" stroke="#4E3A3A" stroke-width="8" stroke-linecap="round" stroke-linejoin="round"/>
</g>
<defs>
<filter id="filter0_d_601_19" x="-8.00061" y="0.00292969" width="641.001" height="25.9971" filterUnits="userSpaceOnUse" color-interpolation-filters="sRGB">
<feFlood flood-opacity="0" result="BackgroundImageFix"/>
<feColorMatrix in="SourceAlpha" type="matrix" values="0 0 0 0 0 0 0 0 0 0 0 0 0 0 0 0 0 0 127 0" result="hardAlpha"/>
<feOffset dy="4"/>
<feGaussianBlur stdDeviation="2"/>
<feComposite in2="hardAlpha" operator="out"/>
<feColorMatrix type="matrix" values="0 0 0 0 0 0 0 0 0 0 0 0 0 0 0 0 0 0 0.25 0"/>
<feBlend mode="normal" in2="BackgroundImageFix" result="effect1_dropShadow_601_19"/>
<feBlend mode="normal" in="SourceGraphic" in2="effect1_dropShadow_601_19" result="shape"/>
</filter>
</defs>
</svg>
